<?xml version="1.0" encoding="utf-8"?>
<!-- Generator: Adobe Illustrator 28.0.0, SVG Export Plug-In . SVG Version: 6.00 Build 0)  -->
<svg version="1.1" id="Capa_1" xmlns="http://www.w3.org/2000/svg" xmlns:xlink="http://www.w3.org/1999/xlink" x="0px" y="0px"
	 viewBox="0 0 500 500" style="enable-background:new 0 0 500 500;" xml:space="preserve">
<style type="text/css">
	.st0{fill:#97181F;}
</style>
<path class="st0" d="M137,322.6c0-87.7,71.1-158.9,158.9-158.9c65.5,0,121.6,39.6,145.9,96.1c-13.8-75.1-79.5-132.1-158.6-132.1
	c-89.2,0-161.4,72.3-161.4,161.4c0,30.7,8.7,59.2,23.5,83.6C140,357,137,340.1,137,322.6z"/>
<path class="st0" d="M277.4,472.2c-107.6,0-194.8-87.2-194.8-194.8c0-107.6,87.2-194.8,194.8-194.8c107.6,0,194.8,87.2,194.8,194.8
	c0,7.1-0.4,14-1.2,20.9c3.3-15.5,5.1-31.5,5.1-48c0-125.1-101.4-226.5-226.5-226.5S23.3,125.2,23.3,250.3s101.4,226.5,226.5,226.5
	c18.8,0,37.1-2.3,54.6-6.7C295.5,471.3,286.6,472.2,277.4,472.2z"/>
</svg>
