<?xml version="1.0" encoding="utf-8"?>
<!-- Generator: Adobe Illustrator 28.0.0, SVG Export Plug-In . SVG Version: 6.00 Build 0)  -->
<svg version="1.1" id="Capa_1" xmlns="http://www.w3.org/2000/svg" xmlns:xlink="http://www.w3.org/1999/xlink" x="0px" y="0px"
	 viewBox="0 0 1920 1000" style="enable-background:new 0 0 1920 1000;" xml:space="preserve">
<style type="text/css">
	
		.st0{clip-path:url(#SVGID_00000009566525213692346060000000686644789702151595_);fill:url(#SVGID_00000060022278814381889440000017977712115303245467_);}
	
		.st1{clip-path:url(#SVGID_00000009566525213692346060000000686644789702151595_);fill:url(#SVGID_00000092428793997118889340000007293423948566297255_);}
</style>
<g>
	<defs>
		<rect id="SVGID_1_" x="-82.2" y="543.8" width="2002.3" height="472.9"/>
	</defs>
	<clipPath id="SVGID_00000007412587150917343320000014477025549876634018_">
		<use xlink:href="#SVGID_1_"  style="overflow:visible;"/>
	</clipPath>
	
		<linearGradient id="SVGID_00000065772872312528110580000007180174771173309368_" gradientUnits="userSpaceOnUse" x1="570.2" y1="224.3443" x2="1963.1886" y2="224.3443" gradientTransform="matrix(1 0 0 -1 0 1000)">
		<stop  offset="0" style="stop-color:#F02B81"/>
		<stop  offset="1" style="stop-color:#97181F"/>
	</linearGradient>
	
		<path style="clip-path:url(#SVGID_00000007412587150917343320000014477025549876634018_);fill:url(#SVGID_00000065772872312528110580000007180174771173309368_);" d="
		M570.2,870.9c129.2-102.3,299.6-137,464.1-145.7c164.6-8.7,330.3,5.4,494-13.8c126.6-14.8,250.8-49.6,366.6-102.6
		c16.8-7.7,37.2-15.6,52.8-5.6c17,10.9,16.7,35.5,14.3,55.6c-8,68.4-19.7,144-73.3,187.2c-32.6,26.2-75.2,35.6-116.3,43.5
		c-284.4,54.4-575.4,73.9-864.6,57.9C791.7,940.8,672,927.5,570.2,870.9L570.2,870.9z"/>
	
		<linearGradient id="SVGID_00000155135709926574054010000016419842647459718308_" gradientUnits="userSpaceOnUse" x1="-609.0845" y1="104.6644" x2="1338.892" y2="104.6644" gradientTransform="matrix(1 0 0 -1 0 1000)">
		<stop  offset="0" style="stop-color:#FF4C8E"/>
		<stop  offset="1" style="stop-color:#97181F"/>
	</linearGradient>
	
		<path style="clip-path:url(#SVGID_00000007412587150917343320000014477025549876634018_);fill:url(#SVGID_00000155135709926574054010000016419842647459718308_);" d="
		M1245.5,845.7c212.2-21.9,411.9-126,625.1-129.2c37.4-0.6,77.2,2.8,107.4,25c48.3,35.5,54.7,103.9,56.8,163.8
		c1.5,42.5,1.2,90-28.1,120.9c-28.6,30.1-74.7,33.6-116.2,34.3c-309.3,5.4-618.3-33.3-927.5-24.6c-287.6,8.1-599.8,81.8-875.7,0.4
		C162,924.8,310.5,835.6,443,813.5s268-7.2,401.2,9.9C977.4,840.4,1111.9,859.5,1245.5,845.7L1245.5,845.7z"/>
</g>
<g>
	<defs>
		<rect id="SVGID_00000106852357889511825000000008620031144607898284_" x="-82.2" y="543.8" width="2002.3" height="472.9"/>
	</defs>
	<clipPath id="SVGID_00000047035710269043461580000016786581154073808776_">
		<use xlink:href="#SVGID_00000106852357889511825000000008620031144607898284_"  style="overflow:visible;"/>
	</clipPath>
</g>
</svg>
