<?xml version="1.0" encoding="utf-8"?>
<!-- Generator: Adobe Illustrator 28.0.0, SVG Export Plug-In . SVG Version: 6.00 Build 0)  -->
<svg version="1.1" id="Construction_1" xmlns="http://www.w3.org/2000/svg" xmlns:xlink="http://www.w3.org/1999/xlink" x="0px"
	 y="0px" viewBox="0 0 1856.3 1080" style="enable-background:new 0 0 1856.3 1080;" xml:space="preserve">
<style type="text/css">
	.st0{fill:#D66279;}
	.st1{fill:#C52744;}
	.st2{fill:#BF3842;}
	.st3{fill:#9F121C;}
	.st4{fill:#670100;}
	.st5{clip-path:url(#SVGID_00000065770974905249442220000015403668754005480074_);fill:#D66279;}
	.st6{clip-path:url(#SVGID_00000065770974905249442220000015403668754005480074_);fill:#E69FAE;}
	.st7{clip-path:url(#SVGID_00000065770974905249442220000015403668754005480074_);}
	.st8{clip-path:url(#SVGID_00000065770974905249442220000015403668754005480074_);fill:#9F121C;}
</style>
<g>
	<path class="st0" d="M1549.1,1084.7c77-10.4,163.6-29.4,209.8-133.4c32.9-74.2,36-173,37.9-265.5c1.6-83.3,3.1-168.6-12.4-247.8
		c-18.9-96.9-62.6-177-114.9-228.9s-112.8-77.3-173.3-86.3c-59.6-8.9-120.1-2.5-178.6,19c-82.6,30.3-160.1,89.9-236.9,149
		C990,360.7,899.2,430.6,808.5,500.4c-50.6,39-102.1,78.4-157.1,93.2C503.5,633.5,348.1,491.8,206,570.9
		C84.9,638.2,9.7,859.2,9.2,1073.1L1549.1,1084.7z"/>
</g>
<g>
	<g>
		<path class="st1" d="M881.1,333.9v686.2h411.7V333.9H881.1z M957.8,926.5h-46.3v-46.3h46.3V926.5z M957.8,829.1h-46.3v-46.3h46.3
			V829.1z M957.8,731.8h-46.3v-46.3h46.3V731.8z M957.8,634.5h-46.3v-46.3h46.3V634.5z M957.8,537.1h-46.3v-46.3h46.3V537.1z
			 M957.8,439.8h-46.3v-46.3h46.3V439.8z M1060.6,926.5h-46.3v-46.3h46.3V926.5z M1060.6,829.1h-46.3v-46.3h46.3V829.1z
			 M1060.6,731.8h-46.3v-46.3h46.3V731.8z M1060.6,634.5h-46.3v-46.3h46.3V634.5z M1060.6,537.1h-46.3v-46.3h46.3V537.1z
			 M1060.6,439.8h-46.3v-46.3h46.3V439.8z M1163.4,926.5h-46.3v-46.3h46.3V926.5z M1163.4,829.1h-46.3v-46.3h46.3V829.1z
			 M1163.4,731.8h-46.3v-46.3h46.3V731.8z M1163.4,634.5h-46.3v-46.3h46.3V634.5z M1163.4,537.1h-46.3v-46.3h46.3V537.1z
			 M1163.4,439.8h-46.3v-46.3h46.3V439.8z M1266.3,926.5H1220v-46.3h46.3V926.5z M1266.3,829.1H1220v-46.3h46.3V829.1z
			 M1266.3,731.8H1220v-46.3h46.3V731.8z M1266.3,634.5H1220v-46.3h46.3V634.5z M1266.3,537.1H1220v-46.3h46.3V537.1z M1266.3,439.8
			H1220v-46.3h46.3V439.8z"/>
		<rect x="342.8" y="433.8" class="st1" width="429.4" height="581.3"/>
		<rect x="646.8" y="488.5" class="st0" width="65.8" height="58.5"/>
		<rect x="646.8" y="609" class="st0" width="65.8" height="58.5"/>
		<rect x="646.8" y="729.5" class="st0" width="65.8" height="58.5"/>
		<rect x="646.8" y="850" class="st0" width="65.8" height="58.5"/>
		
			<rect x="1587.5" y="312.7" transform="matrix(6.123234e-17 -1 1 6.123234e-17 1244.5665 1934.0426)" class="st2" width="3.5" height="64"/>
		
			<rect x="1585.8" y="284.8" transform="matrix(6.123234e-17 -1 1 6.123234e-17 1268.2538 1906.9365)" class="st2" width="3.5" height="69"/>
		
			<rect x="1587.5" y="370" transform="matrix(6.123234e-17 -1 1 6.123234e-17 1187.2584 1991.3507)" class="st2" width="3.5" height="64"/>
		
			<rect x="1587.5" y="426.7" transform="matrix(6.123234e-17 -1 1 6.123234e-17 1130.6129 2047.9962)" class="st2" width="3.5" height="64"/>
		
			<rect x="1587.5" y="483.8" transform="matrix(6.123234e-17 -1 1 6.123234e-17 1073.5256 2105.0835)" class="st2" width="3.5" height="64"/>
		
			<rect x="1587.5" y="540.8" transform="matrix(6.123234e-17 -1 1 6.123234e-17 1016.4384 2162.1707)" class="st2" width="3.5" height="64"/>
		
			<rect x="1587.5" y="597.9" transform="matrix(6.123234e-17 -1 1 6.123234e-17 959.3511 2219.2581)" class="st2" width="3.5" height="64"/>
		
			<rect x="1587.5" y="711.3" transform="matrix(6.123234e-17 -1 1 6.123234e-17 845.9446 2332.6646)" class="st2" width="3.5" height="64"/>
		
			<rect x="1587.5" y="768.2" transform="matrix(6.123234e-17 -1 1 6.123234e-17 789.0349 2389.5742)" class="st2" width="3.5" height="64"/>
		
			<rect x="1587.5" y="825.2" transform="matrix(6.123234e-17 -1 1 6.123234e-17 732.1252 2446.4839)" class="st2" width="3.5" height="64"/>
		
			<rect x="1587.5" y="939" transform="matrix(6.123234e-17 -1 1 6.123234e-17 618.306 2560.3032)" class="st2" width="3.5" height="64"/>
		
			<rect x="1587.5" y="995.9" transform="matrix(6.123234e-17 -1 1 6.123234e-17 561.3963 2617.2129)" class="st2" width="3.5" height="64"/>
		
			<rect x="1585.8" y="326.4" transform="matrix(0.7071 -0.7071 0.7071 0.7071 200.9323 1231.9879)" class="st2" width="3.5" height="94.1"/>
		
			<rect x="1585.8" y="326.4" transform="matrix(-0.7071 -0.7071 0.7071 -0.7071 2446.1755 1760.105)" class="st2" width="3.5" height="94.1"/>
		
			<rect x="1585.8" y="383.3" transform="matrix(0.7071 -0.7071 0.7071 0.7071 160.7074 1248.6849)" class="st2" width="3.5" height="94.1"/>
		
			<rect x="1585.8" y="383.3" transform="matrix(-0.7071 -0.7071 0.7071 -0.7071 2405.9065 1857.2729)" class="st2" width="3.5" height="94.1"/>
		
			<rect x="1585.8" y="440.2" transform="matrix(0.7071 -0.7071 0.7071 0.7071 120.4499 1265.3248)" class="st2" width="3.5" height="94.1"/>
		
			<rect x="1585.8" y="440.2" transform="matrix(-0.7071 -0.7071 0.7071 -0.7071 2365.6948 1954.4082)" class="st2" width="3.5" height="94.1"/>
		
			<rect x="1585.8" y="497.1" transform="matrix(0.7071 -0.7071 0.7071 0.7071 80.2234 1282.0234)" class="st2" width="3.5" height="94.1"/>
		
			<rect x="1585.8" y="497.1" transform="matrix(-0.7071 -0.7071 0.7071 -0.7071 2325.4243 2051.5747)" class="st2" width="3.5" height="94.1"/>
		
			<rect x="1585.8" y="554" transform="matrix(0.7071 -0.7071 0.7071 0.7071 39.9675 1298.6617)" class="st2" width="3.5" height="94.1"/>
		
			<rect x="1585.8" y="554" transform="matrix(-0.7071 -0.7071 0.7071 -0.7071 2285.2141 2148.7114)" class="st2" width="3.5" height="94.1"/>
		
			<rect x="1585.8" y="610.9" transform="matrix(0.7071 -0.7071 0.7071 0.7071 -0.2606 1315.3619)" class="st2" width="3.5" height="94.1"/>
		
			<rect x="1585.8" y="610.9" transform="matrix(-0.7071 -0.7071 0.7071 -0.7071 2244.9419 2245.8765)" class="st2" width="3.5" height="94.1"/>
		
			<rect x="1585.8" y="667.9" transform="matrix(0.7071 -0.7071 0.7071 0.7071 -40.5149 1331.9987)" class="st2" width="3.5" height="94.1"/>
		
			<rect x="1585.8" y="667.9" transform="matrix(-0.7071 -0.7071 0.7071 -0.7071 2204.7332 2343.0149)" class="st2" width="3.5" height="94.1"/>
		
			<rect x="1585.8" y="724.8" transform="matrix(0.7071 -0.7071 0.7071 0.7071 -80.7446 1348.7004)" class="st2" width="3.5" height="94.1"/>
		
			<rect x="1585.8" y="724.8" transform="matrix(-0.7071 -0.7071 0.7071 -0.7071 2164.4595 2440.178)" class="st2" width="3.5" height="94.1"/>
		
			<rect x="1585.8" y="781.7" transform="matrix(0.7071 -0.7071 0.7071 0.7071 -120.9973 1365.3356)" class="st2" width="3.5" height="94.1"/>
		
			<rect x="1585.8" y="781.7" transform="matrix(-0.7071 -0.7071 0.7071 -0.7071 2124.2524 2537.3181)" class="st2" width="3.5" height="94.1"/>
		
			<rect x="1585.8" y="838.6" transform="matrix(0.7071 -0.7071 0.7071 0.7071 -161.2386 1382.004)" class="st2" width="3.5" height="94.1"/>
		
			<rect x="1585.8" y="838.6" transform="matrix(-0.7071 -0.7071 0.7071 -0.7071 2084.012 2634.47)" class="st2" width="3.5" height="94.1"/>
		
			<rect x="1585.8" y="895.5" transform="matrix(0.7071 -0.7071 0.7071 0.7071 -201.4797 1398.6725)" class="st2" width="3.5" height="94.1"/>
		
			<rect x="1585.8" y="895.5" transform="matrix(-0.7071 -0.7071 0.7071 -0.7071 2043.7716 2731.6216)" class="st2" width="3.5" height="94.1"/>
		
			<rect x="1585.8" y="952.4" transform="matrix(0.7071 -0.7071 0.7071 0.7071 -241.7209 1415.3409)" class="st2" width="3.5" height="94.1"/>
		
			<rect x="1585.8" y="952.4" transform="matrix(-0.7071 -0.7071 0.7071 -0.7071 2003.5312 2828.7732)" class="st2" width="3.5" height="94.1"/>
		<rect x="1553.1" y="321.1" class="st2" width="8.4" height="732.1"/>
		<rect x="1613.7" y="321.1" class="st2" width="8.4" height="732.1"/>
		<rect x="1689.7" y="266.8" class="st2" width="3.5" height="44.8"/>
		<rect x="1632.4" y="266.8" class="st2" width="3.5" height="44.8"/>
		<rect x="1575.7" y="266.8" class="st2" width="3.5" height="44.8"/>
		<rect x="1518.6" y="266.8" class="st2" width="3.5" height="44.8"/>
		<rect x="1461.5" y="266.8" class="st2" width="3.5" height="44.8"/>
		<rect x="1404.5" y="266.8" class="st2" width="3.5" height="44.8"/>
		<rect x="1291" y="266.8" class="st2" width="3.5" height="44.8"/>
		<rect x="1234.1" y="266.8" class="st2" width="3.5" height="44.8"/>
		<rect x="1177.2" y="266.8" class="st2" width="3.5" height="44.8"/>
		<rect x="1063.4" y="266.8" class="st2" width="3.5" height="44.8"/>
		<rect x="1006.5" y="266.8" class="st2" width="3.5" height="44.8"/>
		<rect x="981.2" y="266.8" class="st2" width="3.5" height="44.8"/>
		<polygon class="st2" points="1697.2,265.7 1694.7,263.9 1628.2,310.5 1630.7,312.2 		"/>
		<polygon class="st2" points="1697.2,310.5 1694.7,312.2 1628.2,265.7 1630.7,263.9 		"/>
		<polygon class="st2" points="1640.3,265.7 1637.8,263.9 1571.3,310.5 1573.8,312.2 		"/>
		<polygon class="st2" points="1640.3,310.5 1637.8,312.2 1571.3,265.7 1573.8,263.9 		"/>
		<polygon class="st2" points="1583.4,265.7 1580.9,263.9 1514.4,310.5 1516.9,312.2 		"/>
		<polygon class="st2" points="1583.4,310.5 1580.9,312.2 1514.4,265.7 1516.9,263.9 		"/>
		<polygon class="st2" points="1526.5,265.7 1524,263.9 1457.5,310.5 1460,312.2 		"/>
		<polygon class="st2" points="1526.5,310.5 1524,312.2 1457.5,265.7 1460,263.9 		"/>
		<polygon class="st2" points="1469.6,265.7 1467.1,263.9 1400.6,310.5 1403.1,312.2 		"/>
		<polygon class="st2" points="1469.6,310.5 1467.1,312.2 1400.6,265.7 1403.1,263.9 		"/>
		<polygon class="st2" points="1412.7,265.7 1410.2,263.9 1343.7,310.5 1346.2,312.2 		"/>
		<polygon class="st2" points="1412.7,310.5 1410.2,312.2 1343.7,265.7 1346.2,263.9 		"/>
		<polygon class="st2" points="1355.8,265.7 1353.3,263.9 1286.8,310.5 1289.3,312.2 		"/>
		<polygon class="st2" points="1355.8,310.5 1353.3,312.2 1286.8,265.7 1289.3,263.9 		"/>
		<polygon class="st2" points="1298.9,265.7 1296.4,263.9 1229.8,310.5 1232.3,312.2 		"/>
		<polygon class="st2" points="1298.9,310.5 1296.4,312.2 1229.8,265.7 1232.3,263.9 		"/>
		<polygon class="st2" points="1242,265.7 1239.5,263.9 1172.9,310.5 1175.4,312.2 		"/>
		<polygon class="st2" points="1242,310.5 1239.5,312.2 1172.9,265.7 1175.4,263.9 		"/>
		<polygon class="st2" points="1185.1,265.7 1182.6,263.9 1116,310.5 1118.5,312.2 		"/>
		<polygon class="st2" points="1185.1,310.5 1182.6,312.2 1116,265.7 1118.5,263.9 		"/>
		<polygon class="st2" points="1128.2,265.7 1125.7,263.9 1059.1,310.5 1061.6,312.2 		"/>
		<polygon class="st2" points="1128.2,310.5 1125.7,312.2 1059.1,265.7 1061.6,263.9 		"/>
		<polygon class="st2" points="1071.2,265.7 1068.7,263.9 1002.2,310.5 1004.7,312.2 		"/>
		<polygon class="st2" points="1071.2,310.5 1068.7,312.2 1002.2,265.7 1004.7,263.9 		"/>
		
			<rect x="1346.1" y="-99.2" transform="matrix(-1.836970e-16 1 -1 -1.836970e-16 1615.8728 -1082.1842)" class="st2" width="5.9" height="732.1"/>
		
			<rect x="1312.9" y="-90" transform="matrix(-1.836970e-16 1 -1 -1.836970e-16 1625.0887 -1006.5276)" class="st2" width="5.9" height="798.5"/>
		<rect x="1466.2" y="237.9" class="st2" width="180.6" height="79.7"/>
		<polygon class="st2" points="985.6,265.7 983.1,263.9 916.5,310.5 919,312.2 		"/>
		<path class="st2" d="M1466.2,151.6v86.3h117.2v-59.7c0-1.8-1.2-3.4-3-3.8l-111.6-24.9C1467.5,149.1,1466.2,150.2,1466.2,151.6z
			 M1511.7,224.2h-35.8v-58.7l35.8,7.5V224.2z M1542.8,224.2h-24v-49.5l24,4.7V224.2z"/>
		<rect x="1054.5" y="912" class="st3" width="249.8" height="53"/>
		<polygon class="st2" points="1126.7,912 1073.7,965.1 1054.5,965.1 1054.5,944.9 1087.4,912 		"/>
		<polygon class="st2" points="1202.9,912 1149.9,965.1 1110.6,965.1 1163.6,912 		"/>
		<polygon class="st2" points="1279.1,912 1226.1,965.1 1186.8,965.1 1239.8,912 		"/>
		<polygon class="st2" points="1304.3,923.7 1304.3,963.1 1302.3,965.1 1263,965.1 		"/>
		<rect x="1073.7" y="965.1" class="st2" width="11.3" height="109.2"/>
		<rect x="1267.9" y="965.1" class="st2" width="11.3" height="109.2"/>
		<rect x="1118.8" y="770.7" class="st4" width="121.2" height="51"/>
		<rect x="1432.8" y="743.3" class="st4" width="89.9" height="78.4"/>
		<rect x="979" y="316.3" class="st3" width="3.5" height="154.6"/>
		<rect x="1012.6" y="316.3" class="st3" width="3.5" height="154.6"/>
		<rect x="1046.1" y="316.3" class="st3" width="3.5" height="154.6"/>
		<rect x="1029.4" y="333.9" class="st3" width="3.5" height="154.6"/>
		<rect x="1079.7" y="316.3" class="st3" width="3.5" height="154.6"/>
		
			<rect x="1269.3" y="379.3" transform="matrix(0.7071 -0.7071 0.7071 0.7071 32.5711 1039.4739)" class="st3" width="3.5" height="202.2"/>
		
			<rect x="1413.3" y="426.1" transform="matrix(0.7071 -0.7071 0.7071 0.7071 41.6756 1155.0166)" class="st3" width="3.5" height="202.2"/>
		
			<rect x="1269.3" y="379.3" transform="matrix(-0.7071 -0.7071 0.7071 -0.7071 1830.0952 1718.8904)" class="st3" width="3.5" height="202.2"/>
		<rect x="1194.1" y="407.7" class="st3" width="8.4" height="154.6"/>
		<rect x="1340.4" y="407.7" class="st3" width="8.4" height="154.6"/>
		<rect x="941.6" y="582.6" class="st3" width="70.2" height="446.6"/>
		<rect x="1305.3" y="582.6" class="st3" width="70.2" height="446.6"/>
		
			<rect x="1270.2" y="172.9" transform="matrix(6.123234e-17 -1 1 6.123234e-17 690.931 1919.6118)" class="st3" width="70.2" height="882.8"/>
		
			<rect x="1270.2" y="410.4" transform="matrix(6.123234e-17 -1 1 6.123234e-17 453.4783 2157.0645)" class="st3" width="70.2" height="882.8"/>
		<rect x="1163.7" y="544.3" class="st4" width="346.4" height="34.9"/>
		<rect x="975.2" y="447.5" class="st3" width="111.8" height="145.2"/>
		<rect x="961.4" y="433.8" class="st4" width="139.4" height="27.5"/>
		<rect x="961.4" y="492.6" class="st4" width="139.4" height="27.5"/>
		
			<rect x="1267.5" y="307.4" transform="matrix(6.123234e-17 -1 1 6.123234e-17 866.2194 1677.1687)" class="st3" width="8.4" height="196.2"/>
		<rect x="863.9" y="758.8" class="st3" width="24.3" height="60.1"/>
		<rect x="1276.7" y="366.2" class="st4" width="76" height="35.1"/>
	</g>
	<rect x="7.9" y="1015.1" class="st3" width="1711.9" height="67.8"/>
</g>
<g>
	<g id="Artwork_00000072979416751168776230000011615444567765381527_">
		<g>
			<g>
				<defs>
					<path id="SVGID_1_" d="M1862.7-497.9c-615.6-6.8-1234-23.6-1849.7-20.6C-24.4-629.1,19.4-762,115.3-828.7
						c115.1-80,274.1-61.5,397.9-127.1c144.7-76.7,208.4-247.4,319.7-367.7c106.5-115,256.7-182.1,410-214.7
						c153.3-32.6,311.4-33.4,468.1-34.1c19.8-0.1,45.8-7.1,58.2,8.3c12.4,15.4,17.5,35.3,21.7,54.7
						C1863.3-1179.5,1810-831.4,1862.7-497.9z"/>
				</defs>
				<clipPath id="SVGID_00000062872502065226919060000007138789879657299612_">
					<use xlink:href="#SVGID_1_"  style="overflow:visible;"/>
				</clipPath>
				<polygon style="clip-path:url(#SVGID_00000062872502065226919060000007138789879657299612_);fill:#D66279;" points="
					1718.2,-540 -83.9,-540 -83.9,-1553.6 1709.3,-1606.8 				"/>
				
					<rect x="1218.9" y="-1848.5" transform="matrix(0.7071 -0.7071 0.7071 0.7071 1135.1613 601.5933)" style="clip-path:url(#SVGID_00000062872502065226919060000007138789879657299612_);fill:#E69FAE;" width="149.7" height="1558"/>
				
					<rect x="1423.1" y="-1965.4" transform="matrix(0.7071 -0.7071 0.7071 0.7071 1262.6886 675.684)" style="clip-path:url(#SVGID_00000062872502065226919060000007138789879657299612_);fill:#E69FAE;" width="47.7" height="1558"/>
				
					<rect x="801" y="-1598" transform="matrix(0.7071 -0.7071 0.7071 0.7071 820.7042 343.3519)" style="clip-path:url(#SVGID_00000062872502065226919060000007138789879657299612_);fill:#E69FAE;" width="47.7" height="1558"/>
				<g style="clip-path:url(#SVGID_00000062872502065226919060000007138789879657299612_);">
					<path class="st1" d="M895.8-1288.8v686.2h411.7v-686.2H895.8z M972.4-696.2h-46.3v-46.3h46.3V-696.2z M972.4-793.6h-46.3v-46.3
						h46.3V-793.6z M972.4-890.9h-46.3v-46.3h46.3V-890.9z M972.4-988.2h-46.3v-46.3h46.3V-988.2z M972.4-1085.6h-46.3v-46.3h46.3
						V-1085.6z M972.4-1182.9h-46.3v-46.3h46.3V-1182.9z M1075.2-696.2H1029v-46.3h46.3V-696.2z M1075.2-793.6H1029v-46.3h46.3
						V-793.6z M1075.2-890.9H1029v-46.3h46.3V-890.9z M1075.2-988.2H1029v-46.3h46.3V-988.2z M1075.2-1085.6H1029v-46.3h46.3
						V-1085.6z M1075.2-1182.9H1029v-46.3h46.3V-1182.9z M1178.1-696.2h-46.3v-46.3h46.3V-696.2z M1178.1-793.6h-46.3v-46.3h46.3
						V-793.6z M1178.1-890.9h-46.3v-46.3h46.3V-890.9z M1178.1-988.2h-46.3v-46.3h46.3V-988.2z M1178.1-1085.6h-46.3v-46.3h46.3
						V-1085.6z M1178.1-1182.9h-46.3v-46.3h46.3V-1182.9z M1280.9-696.2h-46.3v-46.3h46.3V-696.2z M1280.9-793.6h-46.3v-46.3h46.3
						V-793.6z M1280.9-890.9h-46.3v-46.3h46.3V-890.9z M1280.9-988.2h-46.3v-46.3h46.3V-988.2z M1280.9-1085.6h-46.3v-46.3h46.3
						V-1085.6z M1280.9-1182.9h-46.3v-46.3h46.3V-1182.9z"/>
				</g>
				<g style="clip-path:url(#SVGID_00000062872502065226919060000007138789879657299612_);">
					<rect x="357.4" y="-1189" class="st1" width="429.4" height="581.3"/>
					<rect x="661.5" y="-1134.2" class="st0" width="65.8" height="58.5"/>
					<rect x="661.5" y="-1013.7" class="st0" width="65.8" height="58.5"/>
					<rect x="661.5" y="-893.2" class="st0" width="65.8" height="58.5"/>
					<rect x="661.5" y="-772.7" class="st0" width="65.8" height="58.5"/>
				</g>
				<path style="clip-path:url(#SVGID_00000062872502065226919060000007138789879657299612_);fill:#9F121C;" d="M1819.5-649.1
					c25.6,3.4,41.8,33.4,36.3,58.7c-5.5,25.3-27.4,44.4-51.6,53.6c-24.1,9.2-50.5,10.2-76.4,11.1c-219,7.4-438,14.8-657,22.2
					c-250.5,8.5-501.1,16.9-751.6,25.4c-129.7,4.4-252.8-8.8-370.5-63.4c58.2-57.2,148.1-62.6,229.6-64.7
					c538.2-13.6,1076.3-27.1,1614.5-40.7C1802.3-647.2,1810.2-647.7,1819.5-649.1z"/>
				<g style="clip-path:url(#SVGID_00000062872502065226919060000007138789879657299612_);">
					
						<rect x="1602.2" y="-1310" transform="matrix(6.123234e-17 -1 1 6.123234e-17 2881.9099 325.9679)" class="st2" width="3.5" height="64"/>
					
						<rect x="1600.5" y="-1337.9" transform="matrix(6.123234e-17 -1 1 6.123234e-17 2905.5972 298.8619)" class="st2" width="3.5" height="69"/>
					
						<rect x="1602.2" y="-1252.7" transform="matrix(6.123234e-17 -1 1 6.123234e-17 2824.6018 383.276)" class="st2" width="3.5" height="64"/>
					
						<rect x="1602.2" y="-1196" transform="matrix(6.123234e-17 -1 1 6.123234e-17 2767.9563 439.9216)" class="st2" width="3.5" height="64"/>
					
						<rect x="1602.2" y="-1139" transform="matrix(6.123234e-17 -1 1 6.123234e-17 2710.8691 497.0088)" class="st2" width="3.5" height="64"/>
					
						<rect x="1602.2" y="-1081.9" transform="matrix(6.123234e-17 -1 1 6.123234e-17 2653.7817 554.0961)" class="st2" width="3.5" height="64"/>
					
						<rect x="1602.2" y="-1024.8" transform="matrix(6.123234e-17 -1 1 6.123234e-17 2596.6946 611.1833)" class="st2" width="3.5" height="64"/>
					
						<rect x="1602.2" y="-911.4" transform="matrix(6.123234e-17 -1 1 6.123234e-17 2483.2878 724.5899)" class="st2" width="3.5" height="64"/>
					
						<rect x="1602.2" y="-854.5" transform="matrix(6.123234e-17 -1 1 6.123234e-17 2426.3782 781.4996)" class="st2" width="3.5" height="64"/>
					
						<rect x="1602.2" y="-797.6" transform="matrix(6.123234e-17 -1 1 6.123234e-17 2369.4688 838.4092)" class="st2" width="3.5" height="64"/>
					
						<rect x="1602.2" y="-683.7" transform="matrix(6.123234e-17 -1 1 6.123234e-17 2255.6494 952.2285)" class="st2" width="3.5" height="64"/>
					
						<rect x="1602.2" y="-626.8" transform="matrix(6.123234e-17 -1 1 6.123234e-17 2198.7397 1009.1382)" class="st2" width="3.5" height="64"/>
					<g>
						
							<rect x="1600.5" y="-1296.3" transform="matrix(0.7071 -0.7071 0.7071 0.7071 1352.6471 767.0555)" class="st2" width="3.5" height="94.1"/>
						
							<rect x="1600.5" y="-1296.3" transform="matrix(-0.7071 -0.7071 0.7071 -0.7071 3618.5637 -999.7077)" class="st2" width="3.5" height="94.1"/>
					</g>
					<g>
						
							<rect x="1600.5" y="-1239.4" transform="matrix(0.7071 -0.7071 0.7071 0.7071 1312.4454 783.7298)" class="st2" width="3.5" height="94.1"/>
						
							<rect x="1600.5" y="-1239.4" transform="matrix(-0.7071 -0.7071 0.7071 -0.7071 3578.3176 -902.5165)" class="st2" width="3.5" height="94.1"/>
					</g>
					<g>
						
							<rect x="1600.5" y="-1182.5" transform="matrix(0.7071 -0.7071 0.7071 0.7071 1272.1647 800.3925)" class="st2" width="3.5" height="94.1"/>
						
							<rect x="1600.5" y="-1182.5" transform="matrix(-0.7071 -0.7071 0.7071 -0.7071 3538.083 -805.4044)" class="st2" width="3.5" height="94.1"/>
					</g>
					<g>
						
							<rect x="1600.5" y="-1125.6" transform="matrix(0.7071 -0.7071 0.7071 0.7071 1231.9614 817.0683)" class="st2" width="3.5" height="94.1"/>
						
							<rect x="1600.5" y="-1125.6" transform="matrix(-0.7071 -0.7071 0.7071 -0.7071 3497.8352 -708.2148)" class="st2" width="3.5" height="94.1"/>
					</g>
					<g>
						
							<rect x="1600.5" y="-1068.7" transform="matrix(0.7071 -0.7071 0.7071 0.7071 1191.6824 833.7293)" class="st2" width="3.5" height="94.1"/>
						
							<rect x="1600.5" y="-1068.7" transform="matrix(-0.7071 -0.7071 0.7071 -0.7071 3457.6023 -611.1011)" class="st2" width="3.5" height="94.1"/>
					</g>
					<g>
						
							<rect x="1600.5" y="-1011.8" transform="matrix(0.7071 -0.7071 0.7071 0.7071 1151.4774 850.4068)" class="st2" width="3.5" height="94.1"/>
						
							<rect x="1600.5" y="-1011.8" transform="matrix(-0.7071 -0.7071 0.7071 -0.7071 3417.3528 -513.9131)" class="st2" width="3.5" height="94.1"/>
					</g>
					<g>
						
							<rect x="1600.5" y="-954.9" transform="matrix(0.7071 -0.7071 0.7071 0.7071 1111.2 867.0662)" class="st2" width="3.5" height="94.1"/>
						
							<rect x="1600.5" y="-954.9" transform="matrix(-0.7071 -0.7071 0.7071 -0.7071 3377.1213 -416.7978)" class="st2" width="3.5" height="94.1"/>
					</g>
					<g>
						
							<rect x="1600.5" y="-897.9" transform="matrix(0.7071 -0.7071 0.7071 0.7071 1070.9934 883.7453)" class="st2" width="3.5" height="94.1"/>
						
							<rect x="1600.5" y="-897.9" transform="matrix(-0.7071 -0.7071 0.7071 -0.7071 3336.8704 -319.6114)" class="st2" width="3.5" height="94.1"/>
					</g>
					<g>
						
							<rect x="1600.5" y="-841" transform="matrix(0.7071 -0.7071 0.7071 0.7071 1030.7175 900.4031)" class="st2" width="3.5" height="94.1"/>
						
							<rect x="1600.5" y="-841" transform="matrix(-0.7071 -0.7071 0.7071 -0.7071 3296.6406 -222.4945)" class="st2" width="3.5" height="94.1"/>
					</g>
					<g>
						
							<rect x="1600.5" y="-784.1" transform="matrix(0.7071 -0.7071 0.7071 0.7071 990.4763 917.0716)" class="st2" width="3.5" height="94.1"/>
						
							<rect x="1600.5" y="-784.1" transform="matrix(-0.7071 -0.7071 0.7071 -0.7071 3256.4001 -125.3428)" class="st2" width="3.5" height="94.1"/>
					</g>
					<g>
						
							<rect x="1600.5" y="-727.2" transform="matrix(0.7071 -0.7071 0.7071 0.7071 950.2351 933.7401)" class="st2" width="3.5" height="94.1"/>
						
							<rect x="1600.5" y="-727.2" transform="matrix(-0.7071 -0.7071 0.7071 -0.7071 3216.1599 -28.1911)" class="st2" width="3.5" height="94.1"/>
					</g>
					<g>
						
							<rect x="1600.5" y="-670.3" transform="matrix(0.7071 -0.7071 0.7071 0.7071 909.9939 950.4085)" class="st2" width="3.5" height="94.1"/>
						
							<rect x="1600.5" y="-670.3" transform="matrix(-0.7071 -0.7071 0.7071 -0.7071 3175.9194 68.9606)" class="st2" width="3.5" height="94.1"/>
					</g>
					<rect x="1567.7" y="-1301.6" class="st2" width="8.4" height="732.1"/>
					<rect x="1628.4" y="-1301.6" class="st2" width="8.4" height="732.1"/>
					<rect x="1704.3" y="-1355.9" class="st2" width="3.5" height="44.8"/>
					<rect x="1647" y="-1355.9" class="st2" width="3.5" height="44.8"/>
					<rect x="1590.4" y="-1355.9" class="st2" width="3.5" height="44.8"/>
					<rect x="1533.3" y="-1355.9" class="st2" width="3.5" height="44.8"/>
					<rect x="1476.2" y="-1355.9" class="st2" width="3.5" height="44.8"/>
					<rect x="1419.1" y="-1355.9" class="st2" width="3.5" height="44.8"/>
					<rect x="1305.7" y="-1355.9" class="st2" width="3.5" height="44.8"/>
					<rect x="1248.8" y="-1355.9" class="st2" width="3.5" height="44.8"/>
					<rect x="1191.9" y="-1355.9" class="st2" width="3.5" height="44.8"/>
					<rect x="1078" y="-1355.9" class="st2" width="3.5" height="44.8"/>
					<rect x="1021.1" y="-1355.9" class="st2" width="3.5" height="44.8"/>
					<rect x="995.9" y="-1355.9" class="st2" width="3.5" height="44.8"/>
					<g>
						<polygon class="st2" points="1711.9,-1357 1709.4,-1358.8 1642.8,-1312.2 1645.3,-1310.5 						"/>
						<polygon class="st2" points="1711.9,-1312.2 1709.4,-1310.5 1642.8,-1357 1645.3,-1358.8 						"/>
					</g>
					<g>
						<polygon class="st2" points="1655,-1357 1652.5,-1358.8 1585.9,-1312.2 1588.4,-1310.5 						"/>
						<polygon class="st2" points="1655,-1312.2 1652.5,-1310.5 1585.9,-1357 1588.4,-1358.8 						"/>
					</g>
					<g>
						<polygon class="st2" points="1598.1,-1357 1595.6,-1358.8 1529,-1312.2 1531.5,-1310.5 						"/>
						<polygon class="st2" points="1598.1,-1312.2 1595.6,-1310.5 1529,-1357 1531.5,-1358.8 						"/>
					</g>
					<g>
						<polygon class="st2" points="1541.2,-1357 1538.7,-1358.8 1472.1,-1312.2 1474.6,-1310.5 						"/>
						<polygon class="st2" points="1541.2,-1312.2 1538.7,-1310.5 1472.1,-1357 1474.6,-1358.8 						"/>
					</g>
					<g>
						<polygon class="st2" points="1484.2,-1357 1481.7,-1358.8 1415.2,-1312.2 1417.7,-1310.5 						"/>
						<polygon class="st2" points="1484.2,-1312.2 1481.7,-1310.5 1415.2,-1357 1417.7,-1358.8 						"/>
					</g>
					<g>
						<polygon class="st2" points="1427.3,-1357 1424.8,-1358.8 1358.3,-1312.2 1360.8,-1310.5 						"/>
						<polygon class="st2" points="1427.3,-1312.2 1424.8,-1310.5 1358.3,-1357 1360.8,-1358.8 						"/>
					</g>
					<g>
						<polygon class="st2" points="1370.4,-1357 1367.9,-1358.8 1301.4,-1312.2 1303.9,-1310.5 						"/>
						<polygon class="st2" points="1370.4,-1312.2 1367.9,-1310.5 1301.4,-1357 1303.9,-1358.8 						"/>
					</g>
					<g>
						<polygon class="st2" points="1313.5,-1357 1311,-1358.8 1244.5,-1312.2 1247,-1310.5 						"/>
						<polygon class="st2" points="1313.5,-1312.2 1311,-1310.5 1244.5,-1357 1247,-1358.8 						"/>
					</g>
					<g>
						<polygon class="st2" points="1256.6,-1357 1254.1,-1358.8 1187.6,-1312.2 1190.1,-1310.5 						"/>
						<polygon class="st2" points="1256.6,-1312.2 1254.1,-1310.5 1187.6,-1357 1190.1,-1358.8 						"/>
					</g>
					<g>
						<polygon class="st2" points="1199.7,-1357 1197.2,-1358.8 1130.7,-1312.2 1133.2,-1310.5 						"/>
						<polygon class="st2" points="1199.7,-1312.2 1197.2,-1310.5 1130.7,-1357 1133.2,-1358.8 						"/>
					</g>
					<g>
						<polygon class="st2" points="1142.8,-1357 1140.3,-1358.8 1073.7,-1312.2 1076.2,-1310.5 						"/>
						<polygon class="st2" points="1142.8,-1312.2 1140.3,-1310.5 1073.7,-1357 1076.2,-1358.8 						"/>
					</g>
					<g>
						<polygon class="st2" points="1085.9,-1357 1083.4,-1358.8 1016.8,-1312.2 1019.3,-1310.5 						"/>
						<polygon class="st2" points="1085.9,-1312.2 1083.4,-1310.5 1016.8,-1357 1019.3,-1358.8 						"/>
					</g>
					
						<rect x="1360.7" y="-1721.9" transform="matrix(-1.836970e-16 1 -1 -1.836970e-16 7.7982 -2719.5276)" class="st2" width="5.9" height="732.1"/>
					
						<rect x="1327.5" y="-1712.7" transform="matrix(-1.836970e-16 1 -1 -1.836970e-16 17.0141 -2643.8708)" class="st2" width="5.9" height="798.5"/>
					<rect x="1480.8" y="-1384.9" class="st2" width="180.6" height="79.7"/>
					<polygon class="st2" points="1000.2,-1357 997.7,-1358.8 931.2,-1312.2 933.7,-1310.5 					"/>
					<path class="st2" d="M1480.8-1471.1v86.3h117.2v-59.7c0-1.8-1.2-3.4-3-3.8l-111.6-24.9
						C1482.1-1473.6,1480.8-1472.5,1480.8-1471.1z M1526.3-1398.5h-35.8v-58.7l35.8,7.5V-1398.5z M1557.5-1398.5h-24v-49.5l24,4.7
						V-1398.5z"/>
				</g>
				<g style="clip-path:url(#SVGID_00000062872502065226919060000007138789879657299612_);">
					<rect x="1069.2" y="-710.7" class="st3" width="249.8" height="53"/>
					<polygon class="st2" points="1141.4,-710.7 1088.4,-657.7 1069.2,-657.7 1069.2,-677.8 1102,-710.7 					"/>
					<polygon class="st2" points="1217.6,-710.7 1164.6,-657.7 1125.2,-657.7 1178.2,-710.7 					"/>
					<polygon class="st2" points="1293.8,-710.7 1240.8,-657.7 1201.4,-657.7 1254.4,-710.7 					"/>
					<polygon class="st2" points="1318.9,-699 1318.9,-659.7 1316.9,-657.7 1277.6,-657.7 					"/>
					<rect x="1088.4" y="-657.7" class="st2" width="11.3" height="109.2"/>
					<rect x="1282.5" y="-657.7" class="st2" width="11.3" height="109.2"/>
				</g>
				<g style="clip-path:url(#SVGID_00000062872502065226919060000007138789879657299612_);">
					<rect x="1133.4" y="-852" class="st4" width="121.2" height="51"/>
					<rect x="1447.5" y="-879.4" class="st4" width="89.9" height="78.4"/>
					<rect x="993.6" y="-1306.5" class="st3" width="3.5" height="154.6"/>
					<rect x="1027.2" y="-1306.5" class="st3" width="3.5" height="154.6"/>
					<rect x="1060.8" y="-1306.5" class="st3" width="3.5" height="154.6"/>
					<rect x="1044" y="-1288.8" class="st3" width="3.5" height="154.6"/>
					<rect x="1094.4" y="-1306.5" class="st3" width="3.5" height="154.6"/>
					
						<rect x="1283.9" y="-1243.4" transform="matrix(0.7071 -0.7071 0.7071 0.7071 1184.286 574.5414)" class="st3" width="3.5" height="202.2"/>
					
						<rect x="1427.9" y="-1196.6" transform="matrix(0.7071 -0.7071 0.7071 0.7071 1193.3904 690.0842)" class="st3" width="3.5" height="202.2"/>
					
						<rect x="1283.9" y="-1243.4" transform="matrix(-0.7071 -0.7071 0.7071 -0.7071 3002.5061 -1040.899)" class="st3" width="3.5" height="202.2"/>
					<rect x="1208.7" y="-1215" class="st3" width="8.4" height="154.6"/>
					<rect x="1355" y="-1215" class="st3" width="8.4" height="154.6"/>
					<rect x="956.2" y="-1040.1" class="st3" width="70.2" height="446.6"/>
					<rect x="1319.9" y="-1040.1" class="st3" width="70.2" height="446.6"/>
					
						<rect x="1284.8" y="-1449.8" transform="matrix(6.123234e-17 -1 1 6.123234e-17 2328.2744 311.5372)" class="st3" width="70.2" height="882.8"/>
					
						<rect x="1284.8" y="-1212.3" transform="matrix(6.123234e-17 -1 1 6.123234e-17 2090.8218 548.9899)" class="st3" width="70.2" height="882.8"/>
					<rect x="1178.3" y="-1078.4" class="st4" width="346.4" height="34.9"/>
					<rect x="989.8" y="-1175.2" class="st3" width="111.8" height="145.2"/>
					<rect x="976" y="-1189" class="st4" width="139.4" height="27.5"/>
					<rect x="976" y="-1130.1" class="st4" width="139.4" height="27.5"/>
					
						<rect x="1282.1" y="-1315.4" transform="matrix(6.123234e-17 -1 1 6.123234e-17 2503.5627 69.094)" class="st3" width="8.4" height="196.2"/>
					<rect x="878.5" y="-863.9" class="st3" width="24.3" height="60.1"/>
					<rect x="1291.3" y="-1256.5" class="st4" width="76" height="35.1"/>
				</g>
			</g>
		</g>
	</g>
</g>
</svg>
