<?xml version="1.0" encoding="utf-8"?>
<!-- Generator: Adobe Illustrator 28.0.0, SVG Export Plug-In . SVG Version: 6.00 Build 0)  -->
<svg version="1.1" id="Capa_1" xmlns="http://www.w3.org/2000/svg" xmlns:xlink="http://www.w3.org/1999/xlink" x="0px" y="0px"
	 viewBox="0 0 679.3 161.1" style="enable-background:new 0 0 679.3 161.1;" xml:space="preserve">
<style type="text/css">
	.st0{fill:#97181F;}
</style>
<g>
	<g>
		<path d="M146.6,96.3c-1.6-1.3-3.4-2.1-5.3-2.6c-1.9-0.5-5.8-0.7-11.8-0.7h-11.1v51.9h7.3v-23.1h2.3c5.9,0,10-0.2,12.4-0.7
			c2.4-0.5,4.4-1.4,6.1-2.6c1.7-1.2,3-2.8,3.9-4.7c0.9-1.9,1.3-4,1.3-6.4c0-2.4-0.5-4.5-1.4-6.4C149.5,99.2,148.2,97.6,146.6,96.3z
			 M144.3,107.4c0,2.2-0.8,3.9-2.3,5.4c-1.5,1.4-4.6,2.1-9,2h-7.2v-14.5h7.6C140.7,100.2,144.3,102.5,144.3,107.4z"/>
		<path d="M173.9,114.7c-3.9-2.9-6.4-5-7.5-6.2c-1-1.2-1.5-2.5-1.5-4.1c0-1.5,0.5-2.8,1.5-3.7c1-1,2.3-1.5,3.9-1.5
			c1.6,0,3,0.4,4.1,1.2c1.2,0.8,2.7,2.4,4.5,4.8l0.4,0.6l5.9-4.6l-0.4-0.5c-2.1-2.9-4.2-5.1-6.4-6.6c-2.2-1.5-4.9-2.3-7.8-2.3
			c-3.9,0-7.1,1.2-9.5,3.7c-2.4,2.5-3.7,5.5-3.7,9c0,1.6,0.3,3.3,0.9,4.9c0.6,1.6,1.6,3.2,3,4.7c1.3,1.4,3.7,3.4,7.3,6.1
			c3.4,2.6,5.9,4.8,7.3,6.6c1.3,1.7,2,3.5,2,5.3c0,1.8-0.8,3.4-2.3,4.8c-1.6,1.4-3.4,2.1-5.7,2.1c-3.4,0-6.6-2.7-9.5-8l-0.3-0.6
			l-6.2,3.6l0.3,0.6c3.9,7.7,9.5,11.6,16.4,11.6c4,0,7.5-1.4,10.5-4.3c3-2.9,4.5-6.3,4.5-10.2c0-3-1-5.9-2.9-8.6
			C180.9,120.5,177.9,117.6,173.9,114.7z"/>
		<path d="M208.2,114.7c-3.9-2.9-6.4-5-7.5-6.2c-1-1.2-1.5-2.5-1.5-4.1c0-1.5,0.5-2.8,1.5-3.7c1-1,2.3-1.5,3.9-1.5
			c1.6,0,3,0.4,4.1,1.2c1.2,0.8,2.7,2.4,4.5,4.8l0.4,0.6l5.9-4.6l-0.4-0.5c-2.1-2.9-4.2-5.1-6.4-6.6c-2.2-1.5-4.9-2.3-7.8-2.3
			c-3.9,0-7.1,1.2-9.5,3.7c-2.4,2.5-3.7,5.5-3.7,9c0,1.6,0.3,3.3,0.9,4.9c0.6,1.6,1.6,3.2,3,4.7c1.3,1.4,3.7,3.4,7.3,6.1
			c3.4,2.6,5.9,4.8,7.3,6.6c1.3,1.7,2,3.5,2,5.3c0,1.8-0.8,3.4-2.3,4.8c-1.6,1.4-3.4,2.1-5.7,2.1c-3.4,0-6.6-2.7-9.5-8l-0.3-0.6
			l-6.2,3.6l0.3,0.6c3.9,7.7,9.5,11.6,16.4,11.6c4,0,7.5-1.4,10.5-4.3c3-2.9,4.5-6.3,4.5-10.2c0-3-1-5.9-2.9-8.6
			C215.2,120.5,212.3,117.6,208.2,114.7z"/>
		<path class="st0" d="M259.9,114.7c-3.9-2.9-6.4-5-7.5-6.2c-1-1.2-1.5-2.5-1.5-4.1c0-1.5,0.5-2.8,1.5-3.7c1-1,2.3-1.5,3.9-1.5
			c1.6,0,3,0.4,4.1,1.2c1.2,0.8,2.7,2.4,4.5,4.8l0.4,0.6l5.9-4.6l-0.4-0.5c-2.1-2.9-4.2-5.1-6.4-6.6c-2.2-1.5-4.9-2.3-7.8-2.3
			c-3.9,0-7.1,1.2-9.5,3.7c-2.4,2.5-3.7,5.5-3.7,9c0,1.6,0.3,3.3,0.9,4.9c0.6,1.6,1.6,3.2,3,4.7c1.3,1.4,3.7,3.4,7.3,6.1
			c3.4,2.6,5.9,4.8,7.3,6.6c1.3,1.7,2,3.5,2,5.3c0,1.8-0.8,3.4-2.3,4.8c-1.6,1.4-3.4,2.1-5.7,2.1c-3.4,0-6.6-2.7-9.5-8l-0.3-0.6
			l-6.2,3.6l0.3,0.6c3.9,7.7,9.5,11.6,16.4,11.6c4,0,7.5-1.4,10.5-4.3c3-2.9,4.5-6.3,4.5-10.2c0-3-1-5.9-2.9-8.6
			C266.9,120.5,263.9,117.6,259.9,114.7z"/>
		<path class="st0" d="M318.5,95.3L318.5,95.3c-4.2-2.4-8.9-3.6-13.9-3.6c-4.8,0-9.3,1.2-13.5,3.6c-4.2,2.4-7.5,5.8-9.9,10
			c-2.4,4.2-3.6,8.8-3.6,13.7s1.2,9.5,3.6,13.7c2.4,4.2,5.8,7.5,10,9.9c4.2,2.4,8.9,3.6,13.8,3.6c4.9,0,9.5-1.2,13.7-3.6
			c4.2-2.4,7.5-5.7,9.9-9.9c2.4-4.2,3.6-8.8,3.6-13.7c0-4.9-1.2-9.5-3.6-13.7C326.1,101,322.7,97.7,318.5,95.3z M324.6,119.1
			c0,5.7-1.9,10.4-5.8,14.2c-3.8,3.8-8.6,5.7-14.1,5.7c-5.3,0-10-2-13.9-5.8c-3.8-3.8-5.8-8.6-5.8-14.2c0-5.6,1.9-10.3,5.6-14.2
			c3.7-3.9,8.5-5.8,14-5.8c5.4,0,10.2,2,14,5.8C322.7,108.6,324.6,113.4,324.6,119.1z"/>
		<polygon class="st0" points="347.1,93 339.7,93 339.7,144.9 366.1,144.9 366.1,137.8 347.1,137.8 		"/>
		<path class="st0" d="M399.6,124.1c0,3.7-0.3,6.5-0.8,8.3c-0.5,1.8-1.6,3.3-3.3,4.7c-1.7,1.3-3.7,2-6,2c-2,0-3.7-0.4-5.2-1.1
			c-1.5-0.7-2.7-1.8-3.5-3c-0.8-1.3-1.3-2.6-1.5-3.9c-0.2-1.4-0.3-3.8-0.3-7V93h-7.3v31.1c0,5.3,0.3,8.9,1,11c0.7,2.1,1.8,4,3.4,5.7
			c1.6,1.7,3.5,3,5.9,4c2.3,0.9,5,1.4,7.9,1.4c3.7,0,6.9-1,9.7-2.9c2.8-1.9,4.7-4.3,5.8-7.2c1.1-2.8,1.6-6.8,1.6-12V93h-7.3V124.1z"
			/>
		<path class="st0" d="M459.7,131c-4.6,5.4-10.1,8.1-16.4,8.1c-6.3,0-11.4-1.9-15.4-5.7c-3.9-3.8-5.9-8.6-5.9-14.2
			c0-5.6,2-10.5,6-14.4c4-3.9,8.8-5.9,14.4-5.9c6.8,0,12.6,2.8,17.2,8.4l0.4,0.5l5.6-4.4l-0.4-0.5c-2.6-3.7-6-6.5-9.9-8.4
			c-3.9-1.9-8.4-2.9-13.4-2.9c-4.9,0-9.6,1.2-13.9,3.5c-4.3,2.4-7.7,5.6-10.1,9.8c-2.4,4.1-3.6,8.7-3.6,13.6
			c0,7.9,2.6,14.5,7.9,19.7c5.2,5.2,12,7.8,20.2,7.8c9.7,0,17.4-3.6,22.9-10.8l0.4-0.6l-5.7-4.3L459.7,131z"/>
		<rect x="472.2" y="93" class="st0" width="7.3" height="51.9"/>
		<path class="st0" d="M527.3,95.3c-4.2-2.4-8.9-3.6-13.9-3.6c-4.8,0-9.3,1.2-13.5,3.6c-4.2,2.4-7.5,5.7-9.9,10
			c-2.4,4.2-3.6,8.8-3.6,13.7s1.2,9.5,3.6,13.7c2.4,4.2,5.8,7.5,10,9.9c4.2,2.4,8.9,3.6,13.8,3.6c4.9,0,9.5-1.2,13.7-3.6
			c4.2-2.4,7.5-5.7,9.9-9.9c2.4-4.2,3.6-8.8,3.6-13.7c0-4.9-1.2-9.5-3.6-13.7C534.9,101,531.5,97.7,527.3,95.3z M533.4,119.1
			c0,5.7-1.9,10.4-5.8,14.2h0c-3.8,3.8-8.6,5.7-14.1,5.7c-5.3,0-10-2-13.9-5.8c-3.8-3.8-5.8-8.6-5.8-14.2c0-5.6,1.9-10.3,5.6-14.2
			c3.7-3.9,8.5-5.8,14-5.8c5.4,0,10.2,2,14,5.8C531.4,108.6,533.4,113.4,533.4,119.1z"/>
		<polygon class="st0" points="582.5,128.9 551.5,93.2 551.3,93 548.5,93 548.5,144.9 556,144.9 556,109.4 587,144.9 589.8,144.9 
			589.8,93 582.5,93 		"/>
		<polygon class="st0" points="599.6,144.9 630.2,144.9 630.2,137.6 606.9,137.6 606.9,120.5 630.2,120.5 630.2,113.3 606.9,113.3 
			606.9,100.3 630.4,100.3 630.4,93 599.6,93 		"/>
		<path class="st0" d="M659.9,123.1c-1.9-2.6-4.9-5.5-8.9-8.4c-3.9-2.9-6.5-5-7.5-6.2c-1-1.2-1.5-2.5-1.5-4.1c0-1.5,0.5-2.8,1.5-3.7
			c1-1,2.3-1.5,3.9-1.5c1.6,0,3,0.4,4.1,1.2c1.2,0.8,2.7,2.4,4.5,4.8l0.4,0.6l5.9-4.6l-0.4-0.5c-2.1-2.9-4.2-5.1-6.4-6.6
			c-2.2-1.5-4.9-2.3-7.9-2.3c-3.9,0-7.1,1.2-9.5,3.7c-2.4,2.4-3.7,5.5-3.7,9c0,1.6,0.3,3.3,0.9,4.9c0.6,1.6,1.6,3.2,3,4.7
			c1.3,1.4,3.8,3.5,7.3,6.1c3.4,2.6,5.9,4.8,7.3,6.6c1.3,1.7,2,3.5,2,5.3c0,1.8-0.8,3.4-2.3,4.8c-1.6,1.4-3.4,2.1-5.7,2.1
			c-3.4,0-6.6-2.7-9.5-8l-0.3-0.6l-6.2,3.6l0.3,0.6c3.9,7.7,9.5,11.6,16.4,11.6c4,0,7.5-1.4,10.5-4.3c3-2.9,4.5-6.3,4.5-10.2
			C662.8,128.7,661.8,125.8,659.9,123.1z"/>
	</g>
	<path class="st0" d="M50.6,101.7c0-26.2,21.2-47.4,47.4-47.4c19.5,0,36.3,11.8,43.6,28.7c-4.1-22.4-23.7-39.4-47.3-39.4
		C67.6,43.6,46,65.1,46,91.7c0,9.1,2.6,17.7,7,25C51.5,112,50.6,106.9,50.6,101.7z"/>
	<path class="st0" d="M92.5,146.3c-32.1,0-58.1-26-58.1-58.1c0-32.1,26-58.1,58.1-58.1c32.1,0,58.1,26,58.1,58.1
		c0,2.1-0.1,4.2-0.3,6.2c1-4.6,1.5-9.4,1.5-14.3c0-37.3-30.3-67.6-67.6-67.6S16.7,42.8,16.7,80.1s30.3,67.6,67.6,67.6
		c5.6,0,11.1-0.7,16.3-2C97.9,146.1,95.2,146.3,92.5,146.3z"/>
</g>
</svg>
