<?xml version="1.0" encoding="utf-8"?>
<!-- Generator: Adobe Illustrator 28.0.0, SVG Export Plug-In . SVG Version: 6.00 Build 0)  -->
<svg version="1.1" id="Capa_1" xmlns="http://www.w3.org/2000/svg" xmlns:xlink="http://www.w3.org/1999/xlink" x="0px" y="0px"
	 viewBox="0 0 45.5 45.5" style="enable-background:new 0 0 45.5 45.5;" xml:space="preserve">
<style type="text/css">
	.st0{fill-rule:evenodd;clip-rule:evenodd;fill:#F7F7F7;}
</style>
<g>
	<path class="st0" d="M32.6,12.8c-2.6-2.6-6.1-4.1-9.8-4.1C15.1,8.7,8.9,15,8.9,22.6c0,2.4,0.6,4.8,1.9,6.9l-2,7.2l7.4-1.9
		c2,1.1,4.3,1.7,6.6,1.7h0c7.6,0,13.9-6.2,13.9-13.9C36.7,18.9,35.2,15.4,32.6,12.8L32.6,12.8L32.6,12.8z M22.8,34.2L22.8,34.2
		c-2.1,0-4.1-0.6-5.9-1.6l-0.4-0.2l-4.4,1.1l1.2-4.3L13,28.8c-1.2-1.8-1.8-4-1.8-6.1c0-6.4,5.2-11.5,11.5-11.5c3.1,0,6,1.2,8.2,3.4
		c2.2,2.2,3.4,5.1,3.4,8.2C34.3,29,29.2,34.2,22.8,34.2L22.8,34.2L22.8,34.2z M29.1,25.5c-0.3-0.2-2.1-1-2.4-1.1
		c-0.3-0.1-0.5-0.2-0.8,0.2c-0.2,0.3-0.9,1.1-1.1,1.4c-0.2,0.2-0.4,0.3-0.8,0.1c-0.3-0.2-1.5-0.5-2.8-1.7c-1-0.9-1.7-2.1-1.9-2.4
		c-0.2-0.3,0-0.5,0.2-0.7c0.2-0.2,0.3-0.4,0.5-0.6c0.2-0.2,0.2-0.3,0.3-0.6c0.1-0.2,0.1-0.4,0-0.6c-0.1-0.2-0.8-1.9-1.1-2.6
		c-0.3-0.7-0.6-0.6-0.8-0.6c-0.2,0-0.4,0-0.7,0s-0.6,0.1-0.9,0.4c-0.3,0.3-1.2,1.2-1.2,2.9c0,1.7,1.2,3.4,1.4,3.6
		c0.2,0.2,2.4,3.7,5.9,5.2c0.8,0.4,1.5,0.6,2,0.7c0.8,0.3,1.6,0.2,2.2,0.1c0.7-0.1,2.1-0.8,2.3-1.6s0.3-1.5,0.2-1.6
		S29.5,25.7,29.1,25.5L29.1,25.5L29.1,25.5z"/>
</g>
</svg>
